<?xml version="1.0" encoding="iso-8859-1"?>
<!-- Generator: Adobe Illustrator 19.0.0, SVG Export Plug-In . SVG Version: 6.00 Build 0)  -->
<svg version="1.1" id="Capa_1" xmlns="http://www.w3.org/2000/svg" xmlns:xlink="http://www.w3.org/1999/xlink" x="0px" y="0px"
	 viewBox="0 0 210.145 210.145" style="enable-background:new 0 0 210.145 210.145;" xml:space="preserve">
<g>
	<path style="fill:#EBEBEC;" d="M133.443,61.835c5.398-2.569,31.924-63.753,50.98-61.396c19.053,2.358,14.477,122.248,9.71,135.028
		c-8.236,22.063-17.532,73.381-80.46,74.677H95.748c-62.917-1.635-71.937-53.003-80.053-75.112
		C10.994,122.228,7.067,2.316,26.133,0.061c19.067-2.252,45.263,59.07,50.647,61.673c5.385,2.6,16.636-0.41,28.345-0.979
		C116.835,60.185,128.043,64.407,133.443,61.835z"/>
	<path style="fill:#F9B9B9;" d="M92.645,180.459c0,0,6.5,6.35,12.48,6.35c5.981,0,12.481-6.35,12.481-6.35l2.889-8.774
		l-19.165-2.105L92.645,180.459z"/>
	<path style="fill:#E59553;" d="M13.819,123.901c1.177,3.184,91.585-57.123,92.059-63.166c-0.044,0.002-0.087,0.002-0.131,0.003
		c-5.158,0.538-12.058,1.427-17.964,1.767c-4.243,0.395-7.848,0.436-10.38-0.526c-0.224-0.075-0.436-0.155-0.622-0.245
		c-5.384-2.603-31.58-63.925-50.647-61.673C9.748,1.999,10.344,90.83,13.819,123.901z"/>
	<path style="fill:#4C4845;" d="M184.423,0.439c-19.057-2.357-45.583,58.826-50.98,61.396c-1.551,0.738-3.593,0.907-5.976,0.8
		c-5.913,0.024-14.195-1.239-20.739-1.92c-0.023,0-0.046,0.001-0.069,0.002c0.459,6.035,88.032,66.495,89.203,63.307
		c0.126-0.344,0.251-0.77,0.373-1.248C199.749,88.574,200.545,2.435,184.423,0.439z"/>
	<path style="fill:#F9B9B9;" d="M188.651,96.183c-2.993,6.446-38.644-28.832-39.533-35.864c-0.89-7.029,25.783-46.837,32.306-43
		C187.091,20.651,191.22,90.65,188.651,96.183z"/>
	<g>
		<circle style="fill:#F2D86B;" cx="145.565" cy="116.896" r="16.064"/>
		<circle style="fill:#4C4845;" cx="145.55" cy="116.607" r="11.902"/>
		<circle style="fill:#FFFFFF;" cx="143.445" cy="110.389" r="5.572"/>
	</g>
	<path style="fill:#EBEBEC;" d="M138.23,164.414c0,9.141-7.412,16.551-16.553,16.551c-9.142,0-16.552-7.41-16.552-16.551"/>
	<path style="fill:#EBEBEC;" d="M105.126,164.414c0,9.141-7.41,16.551-16.551,16.551s-16.551-7.41-16.551-16.551"/>
	<path style="fill:#DDD7D7;" d="M121.677,177.856c-8.077,0-14.793-5.788-16.25-13.441h-0.302c0,9.141,7.41,16.551,16.552,16.551
		c9.141,0,16.553-7.41,16.553-16.551h-0.302C136.471,172.067,129.753,177.856,121.677,177.856z"/>
	<path style="fill:#DDD7D7;" d="M88.573,177.856c-8.077,0-14.793-5.788-16.249-13.441h-0.302c0,9.141,7.41,16.551,16.551,16.551
		s16.553-7.41,16.553-16.551h-0.302C103.369,172.067,96.65,177.856,88.573,177.856z"/>
	<path style="fill:#F9B9B9;" d="M109.553,148.356h-8.852c-11.915,0-8.063,10.709-4.495,10.709c5.111,0,6.198,2.471,8.073,3.076
		v20.578h1.694v-20.576c1.873-0.605,2.959-3.078,8.071-3.078C117.611,159.064,121.466,148.356,109.553,148.356z"/>
	<g>
		<circle style="fill:#F2D86B;" cx="64.686" cy="116.896" r="16.063"/>
		<circle style="fill:#4C4845;" cx="64.669" cy="116.607" r="11.901"/>
		<circle style="fill:#FFFFFF;" cx="62.566" cy="110.389" r="5.572"/>
	</g>
	<path style="fill:#F9B9B9;" d="M23.112,96.183c2.993,6.446,38.644-28.832,39.533-35.864c0.89-7.029-25.783-46.837-32.306-43
		C24.672,20.651,20.543,90.65,23.112,96.183z"/>
	<path style="opacity:0.2;fill:#FFFFFF;" d="M105.126,60.757c-11.689,0.576-22.914,3.572-28.291,0.977
		c-5.384-2.603-31.58-63.925-50.647-61.673C7.121,2.316,11.048,122.228,15.749,135.032c8.116,22.109,17.136,73.477,80.053,75.112
		h9.325V60.757z"/>
</g>
<g>
</g>
<g>
</g>
<g>
</g>
<g>
</g>
<g>
</g>
<g>
</g>
<g>
</g>
<g>
</g>
<g>
</g>
<g>
</g>
<g>
</g>
<g>
</g>
<g>
</g>
<g>
</g>
<g>
</g>
</svg>
